<?xml version="1.0" encoding="utf-8"?>
<!-- Generator: Adobe Illustrator 27.0.0, SVG Export Plug-In . SVG Version: 6.00 Build 0)  -->
<svg version="1.1" id="Layer_1" xmlns="http://www.w3.org/2000/svg" xmlns:xlink="http://www.w3.org/1999/xlink" x="0px" y="0px"
	 viewBox="0 0 1200 446.32" style="enable-background:new 0 0 1200 446.32;" xml:space="preserve">
<style type="text/css">
	.st0{fill:#FF6A00;}
	.st1{fill:#FFFFFF;}
	.st2{fill:#FAF8F4;}
</style>
<g>
	<g>
		<path class="st0" d="M157.35,168.63v142.45H299.8c18.44,0,33.39-14.95,33.39-33.39V135.24H190.74
			C172.3,135.24,157.35,150.19,157.35,168.63z"/>
		<g>
			<path class="st1" d="M208.45,208.06l-14.72,9.49c-6.1,3.93-9.78,10.69-9.78,17.95v2.89l0.01-0.01l-0.01,47.14l10.41-6.71
				c8.79-5.66,14.1-15.4,14.1-25.86V237.7l-0.01,0.01L208.45,208.06z"/>
			<path class="st1" d="M255.87,177.83l-29.6,18.11c-6.34,3.88-10.21,10.78-10.21,18.22v15.64l15.3-9.05v12.2l0.01-0.01l-0.01,52.59
				l10.41-6.71c8.79-5.66,14.1-15.4,14.1-25.86v-45.48l-0.01,0.01L255.87,177.83z"/>
			<path class="st1" d="M304.1,149.11l-29.6,18.11c-6.34,3.88-10.21,10.78-10.21,18.22v15.64l15.3-9.05v12.2l0.01-0.01l-0.01,81.3
				l10.41-6.71c8.79-5.66,14.1-15.4,14.1-25.86v-74.2l-0.01,0.01L304.1,149.11z"/>
		</g>
	</g>
	<g>
		<path class="st0" d="M358.02,220.95v-83.5h39.89l24.96,53.65l25.09-53.65h39.63v83.5h-22.52v-69.99l-32.68,69.99h-19.17
			l-32.68-70.64v70.64H358.02z"/>
		<path class="st0" d="M582.15,170.38v16.73h-59.44v14.53h63.05v19.3h-85.56v-83.5h85.56v19.3h-63.05v13.64H582.15z"/>
		<path class="st0" d="M656.14,220.95h-25.61v-60.99h-34.87v-22.52h95.21v22.52h-34.74V220.95z"/>
		<path class="st0" d="M701.17,199.75v-41.11c0-5.91,2.19-10.91,6.56-15.03c4.37-4.11,9.69-6.17,15.95-6.17h61.76
			c6.18,0,11.47,2.08,15.89,6.23c4.42,4.15,6.63,9.14,6.63,14.96v40.73c0,5.91-2.21,10.99-6.63,15.22
			c-4.42,4.24-9.72,6.36-15.89,6.36h-61.76c-6.09,0-11.37-2.1-15.83-6.29C703.4,210.45,701.17,205.48,701.17,199.75z M733.34,199.71
			h42.2c2.66,0,4.97-0.94,6.95-2.82c1.97-1.88,2.96-4.15,2.96-6.8v-22.44c0-2.57-0.94-4.7-2.83-6.41c-1.89-1.71-4.25-2.57-7.08-2.57
			h-42.2c-2.75,0-5.04,0.88-6.88,2.63c-1.85,1.75-2.77,3.87-2.77,6.35v22.44c0,2.57,0.92,4.81,2.77,6.74
			C728.3,198.75,730.59,199.71,733.34,199.71z"/>
		<path class="st0" d="M924.4,167.63v22.48c0,8.48-2.19,15.74-6.56,21.78c-4.37,6.04-9.69,9.06-15.95,9.06h-81.7v-83.5h81.7
			c6.18,0,11.47,2.98,15.89,8.93C922.19,152.32,924.4,159.41,924.4,167.63z M901.89,189.71v-22.06c0-2.57-1.05-4.7-3.15-6.41
			c-2.1-1.71-4.7-2.57-7.78-2.57H842.7v41.05h47.86c3.09,0,5.75-0.98,7.98-2.95C900.77,194.8,901.89,192.45,901.89,189.71z"/>
		<path class="st0" d="M935.85,199.75v-41.11c0-5.91,2.19-10.91,6.56-15.03c4.37-4.11,9.69-6.17,15.95-6.17h61.76
			c6.18,0,11.47,2.08,15.89,6.23c4.42,4.15,6.63,9.14,6.63,14.96v40.73c0,5.91-2.21,10.99-6.63,15.22s-9.72,6.36-15.89,6.36h-61.76
			c-6.09,0-11.37-2.1-15.82-6.29C938.08,210.45,935.85,205.48,935.85,199.75z M968.02,199.71h42.2c2.66,0,4.97-0.94,6.95-2.82
			c1.97-1.88,2.96-4.15,2.96-6.8v-22.44c0-2.57-0.94-4.7-2.83-6.41c-1.89-1.71-4.25-2.57-7.08-2.57h-42.2
			c-2.75,0-5.04,0.88-6.89,2.63c-1.85,1.75-2.77,3.87-2.77,6.35v22.44c0,2.57,0.92,4.81,2.77,6.74
			C962.98,198.75,965.27,199.71,968.02,199.71z"/>
		<path class="st2" d="M430.77,281.66h19.44v10.33c0,4.59-1.89,8.52-5.67,11.78c-3.78,3.26-8.37,4.89-13.77,4.89h-53.31
			c-5.26,0-9.81-1.63-13.66-4.88c-3.85-3.25-5.77-7.17-5.77-11.76V253.2c0-4.58,1.89-8.5,5.67-11.75c3.78-3.25,8.37-4.88,13.77-4.88
			h53.31c5.26,0,9.81,1.62,13.66,4.87c3.85,3.24,5.78,7.15,5.78,11.72v9.07h-19.44c0-2.48-1.07-4.6-3.22-6.36
			c-2.15-1.76-4.78-2.64-7.89-2.64h-31.1c-3.18,0-5.83,0.85-7.94,2.55c-2.11,1.7-3.16,3.88-3.16,6.53v19.38
			c0,2.81,1.09,5.22,3.28,7.26c2.18,2.03,4.79,3.04,7.83,3.04h31.1c3.04,0,5.65-1.01,7.83-3.05
			C429.68,286.9,430.77,284.48,430.77,281.66z"/>
		<path class="st2" d="M459.31,308.65l35.32-72.08h30.54l35.1,72.08h-21.55l-6.67-13.66h-44.43l-6.66,13.66H459.31z M525.07,280.55
			l-15.11-30.99l-15.22,30.99H525.07z"/>
		<path class="st2" d="M568.71,308.65v-72.08h33.32l39.43,58.2v-58.2h19.44v72.08h-33.65l-39.1-57.98v57.98H568.71z"/>
		<path class="st2" d="M721.32,308.65h-22.1v-52.65h-30.1v-19.44h82.19v19.44h-29.99V308.65z"/>
		<path class="st2" d="M761.64,308.65v-72.08h19.44v72.08H761.64z"/>
		<path class="st2" d="M863.49,265v14.44h-51.31v12.55h54.42v16.66h-73.86v-72.08h73.86v16.66h-54.42V265H863.49z"/>
		<path class="st2" d="M896.03,308.87H876.6v-72.3h63.31c5.33,0,9.9,1.79,13.72,5.37c3.81,3.58,5.72,7.89,5.72,12.91v12.18
			c0,2.88-0.85,5.38-2.55,7.48c-1.71,2.1-4,4.23-6.89,6.37c4.22,0.52,6.85,2.95,7.88,7.28c1.04,4.33,1.56,11.24,1.56,20.71h-19.44
			c0-6.29-0.55-10.92-1.67-13.88c-1.11-2.96-2.59-4.44-4.44-4.44h-37.77V308.87z M896.03,254.89v17.33h35.21
			c2.37,0,4.41-0.92,6.11-2.76c1.7-1.84,2.56-4.04,2.56-6.62c0-2.21-0.85-4.08-2.56-5.63c-1.7-1.55-3.74-2.32-6.11-2.32H896.03z"/>
		<path class="st2" d="M1039.54,265v14.44h-51.32v12.55h54.43v16.66h-73.86v-72.08h73.86v16.66h-54.43V265H1039.54z"/>
	</g>
</g>
</svg>

